<svg version="1.1" xmlns="http://www.w3.org/2000/svg" width="768" height="256" viewBox="0 0 768 256">
<path fill="context-fill" d="M91.2314,174.2666l7.9395,0.6367c-0.1914,0.707-0.3203,1.4102-0.3848,2.3711
	c-0.3828,15.3008-6.3379,25.6758-17.9902,31.7578c-1.2812-1.5391-3.7129-3.332-6.2754-5.125
	c13.4453-5.8906,16.8398-16.0703,16.8398-26.3125C91.3604,176.4424,91.2959,175.1611,91.2314,174.2666z M116.5225,160.7549h-39.248
	c-1.6016,0-3.7773-0.1289-4.6738-0.1914v7.3633c0.8965-0.0664,3.2012-0.1289,4.6738-0.1289h36.5586
	c-3.0742,5.7617-8.707,10.9492-13.4453,14.2148c2.1758,1.4062,5.4414,3.5195,6.082,4.3516
	c5.1855-3.7109,12.1016-12.5469,16.1992-20.1016l0.8965-0.5781l-6.2109-5.3125L116.5225,160.7549z M145.3721,174.2002
	c0,14.5977-3.9707,23.1133-13.3184,29.1953c2.3691,1.5391,4.4824,3.2656,6.7871,4.9961
	c8.8359-8.0664,13.7656-15.3047,13.7656-33.9336c0-9.2227,0.0645-11.5898,0.3203-12.8711l-7.875-0.4492
	C145.2432,163.1885,145.3721,164.79,145.3721,174.2002z M169.7666,194.9463l0.2559-30.0938
	c0.0625-3.2656,0.1914-3.7773,0.3828-5.0586l-7.875-0.5117c0.1934,2.0508,0.3203,3.1367,0.3203,5.0586v33.4219
	c0,0.7031-0.3203,1.2148-0.832,1.793l6.3379,4.9297c0.3203-0.3203,1.0898-0.8984,1.9219-1.4727
	c9.6035-5.7617,16.4551-11.7812,21-17.6094c-1.0234-1.5977-2.4336-4.7344-3.2656-7.2344
	C184.8115,183.6143,177.4482,190.7197,169.7666,194.9463z M224.6748,177.3369c-2.8828,0-5.25,2.3711-5.25,5.25
	c0,2.8828,2.3672,5.25,5.25,5.25c2.8809,0,5.25-2.3672,5.25-5.25C229.9248,179.708,227.5557,177.3369,224.6748,177.3369z
	 M283.3604,177.5947c0,10.2422-3.3945,20.4219-16.8398,26.3125c2.5625,1.793,4.9941,3.5859,6.2754,5.125
	c11.6523-6.082,17.6074-16.457,17.9902-31.7578c0.0645-0.9609,0.1934-1.6641,0.3848-2.3711l-7.9395-0.6367
	C283.2959,175.1611,283.3604,176.4424,283.3604,177.5947z M308.5225,160.7549h-39.248c-1.6016,0-3.7773-0.1289-4.6738-0.1914v7.3633
	c0.8965-0.0664,3.2012-0.1289,4.6738-0.1289h36.5586c-3.0742,5.7617-8.707,10.9492-13.4453,14.2148
	c2.1758,1.4062,5.4414,3.5195,6.082,4.3516c5.1855-3.7109,12.1016-12.5469,16.1992-20.1016l0.8965-0.5781l-6.2109-5.3125
	L308.5225,160.7549z M361.7666,194.9463l0.2559-30.0938c0.0625-3.2656,0.1914-3.7773,0.3828-5.0586l-7.875-0.5117
	c0.1934,2.0508,0.3203,3.1367,0.3203,5.0586v33.4219c0,0.7031-0.3203,1.2148-0.832,1.793l6.3379,4.9297
	c0.3203-0.3203,1.0898-0.8984,1.9219-1.4727c9.6035-5.7617,16.4551-11.7812,21-17.6094c-1.0234-1.5977-2.4336-4.7344-3.2656-7.2344
	C376.8115,183.6143,369.4482,190.7197,361.7666,194.9463z M337.3721,174.2002c0,14.5977-3.9707,23.1133-13.3184,29.1953
	c2.3691,1.5391,4.4824,3.2656,6.7871,4.9961c8.8359-8.0664,13.7656-15.3047,13.7656-33.9336c0-9.2227,0.0645-11.5898,0.3203-12.8711
	l-7.875-0.4492C337.2432,163.1885,337.3721,164.79,337.3721,174.2002z M418.8506,168.2471
	c0.1953-2.4336,0.2578-4.8672,0.2578-7.3633c0-2.3047,0.1289-3.3945,0.2539-3.9688l-7.8105-0.4492
	c0.1289,0.5742,0.1914,1.6016,0.1914,5.0586c0,2.3047-0.0625,4.5469-0.1914,6.7227H398.042c-1.6641,0-3.7129-0.0664-4.418-0.1289
	v6.9805c0.6406,0,2.625-0.1289,4.418-0.1289h12.6777c-2.1133,11.6523-7.6191,21.4492-19.6562,27.6602
	c1.8574,1.3438,4.3535,3.7773,5.8262,5.6328c12.6777-7.1055,18.8906-19.3359,21.1289-33.293h14.2148
	c-0.0625,20.8711-1.9219,25.3555-7.875,25.3555c-2.6875,0-5.7617-0.5156-7.5547-1.0273c0.7695,1.8594,2.3672,6.4023,2.8789,8.2617
	c17.9922,0,20.1055-3.2031,19.7227-39.3125H418.8506z M505.2607,151.3447l-3.3945,2.2383c2.6914,1.9844,5.3164,5.1875,6.7227,7.3008
	l3.5859-2.4336C510.7021,156.3369,507.5029,152.9424,505.2607,151.3447z M498.7959,155.1221l-3.5234,2.3047
	c2.3711,1.9844,5.1211,5.25,6.5938,7.4883l3.7148-2.5586C504.1709,160.3057,500.9717,156.7861,498.7959,155.1221z
	 M478.8193,199.8096c-7.75,0-9.7344-1.2773-9.7344-5.5703v-9.0898c10.2461-2.2422,19.7852-5.4414,27.3398-8.3867
	c1.6641-0.5781,2.1758-0.832,3.3945-1.0234l-3.7773-7.3008c-3.9062,3.2031-17.8633,7.6836-26.957,9.9258v-13.832
	c0-1.0234,0.1289-3.7148,0.3203-4.5469l-7.9375-0.5742c0.1289,1.2148,0.1914,3.2656,0.1914,4.8008v30.8594
	c0,9.4766,5.3789,11.5898,16.9023,11.5898c7.5547,0,15.8164-0.4492,22.4102-1.0234l-0.3203-7.4258
	C496.6826,198.915,485.4131,199.8096,478.8193,199.8096z M524.8271,180.1533c-2.0508,0-4.5469-0.0625-4.9922-0.125v7.6172
	c0.4453,0,3.0703-0.1289,4.9922-0.1289h38.9922c2.0469,0,4.5469,0.1289,4.9922,0.1289v-7.6172
	c-0.3828,0.0625-2.8164,0.125-4.9922,0.125H524.8271z M617.7686,194.9463l0.2539-30.0938c0.0625-3.2656,0.1914-3.7773,0.3828-5.0586
	l-7.875-0.5117c0.1953,2.0508,0.3203,3.1367,0.3203,5.0586v33.4219c0,0.7031-0.3203,1.2148-0.832,1.793l6.3398,4.9297
	c0.3203-0.3203,1.0898-0.8984,1.9219-1.4727c9.6016-5.7617,16.4531-11.7812,21-17.6094c-1.0234-1.5977-2.4336-4.7344-3.2656-7.2344
	C632.8115,183.6143,625.4482,190.7197,617.7686,194.9463z M593.374,174.2002c0,14.5977-3.9727,23.1133-13.3203,29.1953
	c2.3711,1.5391,4.4844,3.2656,6.7891,4.9961c8.8359-8.0664,13.7656-15.3047,13.7656-33.9336c0-9.2227,0.0625-11.5898,0.3203-12.8711
	l-7.875-0.4492C593.2451,163.1885,593.374,164.79,593.374,174.2002z M81.1729,131.7354H64.6611l29.375-67.9688h12.3848
	l29.5684,67.9688h-16.8965l-5.8555-14.3984H86.8369L81.1729,131.7354z M91.54,104.665h16.6094l-8.3535-21.1211L91.54,104.665z
	 M186.0986,117.9111h-27.7422V63.7666h-14.9766v67.9688h42.7188V117.9111z M189.8428,113.5908h23.6152v-11.5195h-23.6152V113.5908z
	 M270.1924,131.7354l-5.8555-14.3984h-26.4004l-5.6641,14.3984h-16.5117l29.375-67.9688h12.3848l29.5684,67.9688H270.1924z
	 M259.249,104.665l-8.3535-21.1211l-8.2559,21.1211H259.249z M331.1533,103.0322l17.2793,28.7031h-17.9512l-14.209-27.168h-7.3906
	v27.168h-14.9766V63.7666H320.21c3.4551,0,6.7344,0.3359,9.8398,1.0078c3.1035,0.6738,5.8223,1.793,8.1602,3.3613
	c2.334,1.5684,4.1895,3.6797,5.5664,6.3359s2.0645,5.9668,2.0645,9.9355c0,4.8008-1.248,8.8789-3.7441,12.2383
	C339.6006,100.0088,335.9541,102.1377,331.1533,103.0322z M330.29,84.3096c0-1.7266-0.3535-3.1016-1.0566-4.125
	c-0.7051-1.0234-1.6016-1.8086-2.6875-2.3535c-1.0898-0.543-2.3379-0.9121-3.7441-1.1035
	c-1.4082-0.1914-2.7852-0.2891-4.1289-0.2891h-9.791v15.457h8.832c1.3438,0,2.7676-0.0469,4.2715-0.1445
	c1.502-0.0938,2.8633-0.3828,4.0801-0.8633c1.2148-0.4805,2.2227-1.2305,3.0234-2.2578
	C329.8877,87.6064,330.29,86.1689,330.29,84.3096z M371.665,99.4775l27.6465,32.2578h20.9297l-32.834-36.3828l30.2402-31.5859
	h-19.584L371.665,91.9932V63.7666h-14.9766v67.9688h14.9766V99.4775z M469.4873,131.7354h14.9766V63.7666h-14.9766v25.3438h-29.0859
	V63.7666h-14.9766v67.9688h14.9766v-29.375h29.0859V131.7354z M539.8545,117.3369h-26.3984l-5.6641,14.3984h-16.5117l29.375-67.9688
	h12.3828l29.5703,67.9688H545.71L539.8545,117.3369z M534.7686,104.665l-8.3555-21.1211l-8.2539,21.1211H534.7686z
	 M614.542,127.6064c-2.4336,1.4727-5.168,2.5312-8.207,3.168c-3.043,0.6406-6.0664,0.9609-9.0742,0.9609h-27.8398V63.7666h25.3438
	c2.9453,0,5.9062,0.209,8.8828,0.625c2.9727,0.416,5.6445,1.248,8.0156,2.4961c2.3672,1.248,4.2852,2.9922,5.7578,5.2324
	s2.207,5.2168,2.207,8.9277c0,3.8398-1.0703,7.0234-3.2148,9.5508c-2.1445,2.5312-4.9766,4.3359-8.4961,5.4258v0.1914
	c2.2422,0.3203,4.2734,0.9453,6.0977,1.8711c1.8242,0.9297,3.3906,2.1133,4.7031,3.5508c1.3125,1.4414,2.3203,3.1211,3.0234,5.043
	c0.7031,1.918,1.0547,3.9688,1.0547,6.1445c0,3.582-0.7656,6.5742-2.3008,8.9727
	C618.9561,124.2002,616.9717,126.1377,614.542,127.6064z M584.3975,90.9346h10.8477c1.1523,0,2.2891-0.125,3.4102-0.3828
	c1.1172-0.2539,2.125-0.6719,3.0234-1.25c0.8945-0.5742,1.6133-1.3438,2.1602-2.3008c0.543-0.9609,0.8164-2.1133,0.8164-3.457
	c0-1.4062-0.3047-2.5742-0.9141-3.5039c-0.6094-0.9277-1.3906-1.6484-2.3516-2.1602s-2.0508-0.8789-3.2656-1.1055
	c-1.2148-0.2227-2.3984-0.3359-3.5508-0.3359h-10.1758V90.9346z M607.8232,111.0947c0-1.5977-0.4023-2.8945-1.2031-3.8867
	s-1.8086-1.7422-3.0234-2.2578c-1.2148-0.5117-2.5273-0.8633-3.9336-1.0547c-1.4102-0.1914-2.7227-0.2891-3.9375-0.2891h-11.3281
	v15.457h13.4414c1.1523,0,2.3164-0.1289,3.5039-0.3828c1.1836-0.2578,2.2539-0.7031,3.2148-1.3438s1.7422-1.4727,2.3516-2.4961
	S607.8232,112.5674,607.8232,111.0947z M622.5107,56.1826h32.6367v-9.2148h-32.6367V56.1826z M631.4365,131.7354h14.9766V63.7666
	h-14.9766V131.7354z M675.5967,117.9111V63.7666h-14.9766v67.9688h42.7188v-13.8242H675.5967z"/>
</svg>
