<svg version="1.1" xmlns="http://www.w3.org/2000/svg" width="256" height="256" viewBox="0 0 256 256">
<path fill="context-fill" d="M110.4165,203.5936c-0.024,0.096-0.0359,0.192-0.0359,0.288c-0.2401,0.48-0.66,1.188-1.26,2.124
	c-0.6,0.936-1.044,1.668-1.332,2.196c-0.144,0.192-0.24,0.276-0.288,0.252c-0.048-0.024-0.144-0.084-0.288-0.18
	c-0.768-0.624-1.572-1.224-2.412-1.8c-0.84-0.576-1.692-1.104-2.556-1.584c-0.336,0.576-0.696,1.176-1.08,1.8
	c-0.384,0.624-0.696,1.128-0.936,1.512c-0.144,0.192-0.24,0.276-0.288,0.252c-0.048-0.024-0.144-0.084-0.288-0.18
	c-0.816-0.672-1.68-1.308-2.592-1.908c-0.912-0.6-1.824-1.14-2.736-1.62c-0.144-0.144-0.192-0.288-0.144-0.432
	c0.48-0.72,0.948-1.5,1.404-2.34c0.456-0.84,0.876-1.62,1.26-2.34c0.096-0.096,0.216-0.096,0.36,0
	c0.336,0.192,0.756,0.432,1.26,0.72c0.504,0.288,0.996,0.6,1.476,0.936c0.48,0.336,0.948,0.672,1.404,1.008s0.828,0.624,1.116,0.864
	c0.384-0.624,0.732-1.224,1.044-1.8s0.612-1.128,0.9-1.656c0.048-0.144,0.168-0.168,0.36-0.072c0.384,0.24,0.852,0.528,1.404,0.864
	s1.092,0.684,1.62,1.044s1.02,0.708,1.476,1.044s0.804,0.6,1.044,0.792C110.4046,203.4255,110.4406,203.4975,110.4165,203.5936z
	 M129.2506,207.8036c0.048,0.024,0.144-0.06,0.288-0.252c0.144-0.24,0.336-0.564,0.576-0.972c0.24-0.408,0.492-0.816,0.756-1.224
	c0.264-0.408,0.516-0.816,0.756-1.224c0.24-0.408,0.408-0.732,0.504-0.972c0-0.048,0.012-0.12,0.036-0.216
	c0.024-0.0959-0.012-0.168-0.108-0.216c-0.24-0.192-0.588-0.456-1.044-0.792s-0.948-0.696-1.476-1.08
	c-0.528-0.384-1.068-0.744-1.62-1.08c-0.552-0.336-1.02-0.6-1.404-0.792c-0.144-0.096-0.264-0.096-0.36,0
	c-0.384,0.72-0.804,1.5-1.26,2.34c-0.456,0.84-0.924,1.62-1.404,2.34c-0.048,0.144,0,0.288,0.144,0.432
	c0.912,0.48,1.824,1.02,2.736,1.62c0.912,0.6,1.776,1.236,2.592,1.908C129.1066,207.7195,129.2025,207.7795,129.2506,207.8036z
	 M142.6745,144.7756c-0.456-0.336-0.948-0.696-1.476-1.08c-0.528-0.384-1.068-0.744-1.62-1.08s-1.02-0.6-1.4041-0.792
	c-0.144-0.096-0.264-0.096-0.36,0c-0.384,0.72-0.804,1.5-1.26,2.34c-0.456,0.84-0.924,1.62-1.404,2.34
	c-0.048,0.144,0,0.288,0.144,0.432c0.912,0.48,1.824,1.02,2.736,1.62c0.912,0.6,1.776,1.236,2.592,1.908
	c0.144,0.096,0.2401,0.156,0.288,0.18c0.048,0.024,0.144-0.06,0.288-0.252c0.144-0.2401,0.336-0.564,0.576-0.972
	c0.24-0.408,0.492-0.816,0.756-1.224c0.264-0.408,0.516-0.816,0.756-1.224c0.2401-0.408,0.408-0.732,0.504-0.972
	c0-0.048,0.012-0.12,0.036-0.216s-0.012-0.168-0.108-0.216C143.4785,145.3756,143.1306,145.1116,142.6745,144.7756z
	 M179.5465,187.0915c-2.304,1.992-4.788,3.888-7.452,5.688c-2.664,1.8-5.328,3.372-7.992,4.716c-2.664,1.3441-5.004,2.184-7.02,2.52
	c-2.112,0.336-3.9,0.276-5.364-0.18s-2.664-1.2-3.6-2.232c-0.936-1.032-1.632-2.268-2.088-3.708s-0.732-2.964-0.828-4.572
	c-0.0383-0.6407-0.0395-1.2881-0.0358-1.9365c-1.8436,0.6024-3.5559,1.0211-5.1202,1.2325c-0.0959,1.2-0.24,2.076-0.432,2.628
	c-0.192,0.552-0.42,0.828-0.684,0.828c-0.264,0-0.504-0.264-0.72-0.792c-0.2157-0.5272-0.3956-1.2941-0.5393-2.2998
	c-1.5345,0.1913-2.8535-0.0126-3.9567-0.6122c-1.104-0.6-2.028-1.428-2.772-2.484c-0.744-1.056-1.344-2.232-1.8-3.528
	c-0.456-1.296-0.78-2.568-0.972-3.816c-0.096,1.248-0.36,2.484-0.792,3.708s-1.008,2.34-1.728,3.348
	c-0.72,1.008-1.584,1.872-2.592,2.592c-1.008,0.72-2.184,1.176-3.528,1.368l-0.002-0.0015v0.0015
	c-2.7841,0.24-4.788-0.48-6.012-2.16c-1.224-1.6801-1.788-3.864-1.692-6.552c-0.864,0.528-1.728,1.248-2.592,2.16
	s-1.8,1.824-2.808,2.736c-1.008,0.912-2.136,1.74-3.384,2.484c-1.248,0.744-2.688,1.188-4.32,1.332l-0.0072-0.0054
	c-2.0127,0.2381-3.6664-0.1579-4.9608-1.1886c-1.296-1.032-2.316-2.364-3.06-3.996c-0.744-1.632-1.2599-3.42-1.548-5.364
	c-0.288-1.944-0.456-3.708-0.504-5.292c-0.336,1.44-0.816,2.988-1.4399,4.644c-0.624,1.6559-1.416,3.06-2.376,4.212
	c-1.536,1.968-3.72,3.96-6.552,5.976c-2.832,2.016-5.904,3.852-9.216,5.508s-6.636,3.012-9.972,4.068
	c-3.336,1.056-6.276,1.608-8.82,1.656c-2.592,0.048-4.86-0.504-6.804-1.656c-1.944-1.152-3.54-2.64-4.788-4.464
	c-1.248-1.824-2.148-3.888-2.7-6.192s-0.708-4.608-0.468-6.912c0.096-0.864,0.24-1.812,0.432-2.844
	c0.192-1.032,0.432-2.076,0.72-3.132c0.288-1.056,0.588-2.076,0.9-3.06s0.66-1.86,1.044-2.628c0.336-0.672,0.648-0.936,0.936-0.792
	c0.288,0.144,0.384,0.408,0.288,0.792c-0.144,0.432-0.3,1.008-0.468,1.728c-0.168,0.72-0.348,1.488-0.54,2.304
	s-0.372,1.668-0.54,2.556c-0.168,0.888-0.276,1.716-0.324,2.4839c-0.192,2.0161-0.024,3.936,0.504,5.76
	c0.528,1.824,1.368,3.432,2.52,4.824c1.152,1.392,2.568,2.508,4.248,3.348c1.68,0.84,3.576,1.26,5.688,1.26
	c2.544,0,5.484-0.54,8.82-1.62s6.66-2.448,9.972-4.104s6.384-3.504,9.216-5.544c2.832-2.04,5.016-4.02,6.552-5.94
	c0.72-0.912,1.128-2.064,1.224-3.456c0.096-1.392,0.096-2.64,0-3.744c-0.384-4.4641-0.708-8.952-0.972-13.4641
	c-0.264-4.512-0.54-9.012-0.828-13.5c-0.288-4.488-0.624-8.988-1.008-13.5c-0.384-4.512-0.888-9-1.512-13.464
	c-0.24-1.632-0.48-3.252-0.72-4.86c-0.2401-1.608-0.48-3.204-0.72-4.788c0-0.096,0.048-0.42,0.144-0.972
	c0.096-0.552,0.204-1.212,0.324-1.98s0.24-1.572,0.36-2.412c0.12-0.84,0.228-1.596,0.324-2.268c0.144-0.864,0.36-1.32,0.6479-1.368
	c0.288-0.048,0.504,0.2401,0.648,0.864c0.48,1.92,0.972,4.104,1.476,6.552s0.948,5.112,1.332,7.992
	c0.624,4.464,1.1281,8.94,1.512,13.428c0.384,4.488,0.708,8.988,0.972,13.5c0.264,4.512,0.528,9.012,0.792,13.5
	c0.264,4.488,0.588,8.9641,0.972,13.428c0.144,1.248,0.312,2.856,0.504,4.824s0.576,3.864,1.152,5.688
	c0.576,1.824,1.38,3.396,2.412,4.716s2.436,1.956,4.212,1.908v0.006c2.016,0,3.888-0.456,5.616-1.368
	c1.728-0.912,3.264-1.92,4.608-3.024s2.496-2.112,3.456-3.024c0.96-0.912,1.68-1.368,2.16-1.368c0.288-0.048,0.456,0.06,0.504,0.324
	c0.048,0.264,0.024,0.4919-0.072,0.684c-0.48,1.008-0.744,1.98-0.792,2.916c-0.048,0.936,0.108,1.764,0.468,2.484
	c0.36,0.72,0.948,1.296,1.764,1.728c0.816,0.432,1.848,0.648,3.096,0.648v0.0021l0.002-0.0021c0.72,0,1.44-0.12,2.16-0.36
	c0.72-0.24,1.392-0.576,2.016-1.008c0.624-0.432,1.164-0.948,1.62-1.548c0.456-0.6,0.78-1.2599,0.972-1.98
	c0.288-0.912,0.324-2.22,0.108-3.924c-0.216-1.704-0.528-3.48-0.936-5.328c-0.408-1.848-0.864-3.624-1.368-5.328
	c-0.504-1.704-0.924-3.012-1.26-3.924c-0.048-0.144,0-0.528,0.144-1.152c0.144-0.624,0.312-1.332,0.504-2.124
	c0.192-0.7921,0.384-1.548,0.576-2.268c0.192-0.72,0.312-1.248,0.36-1.584c0.048-0.192,0.192-0.312,0.432-0.36
	c0.24-0.048,0.408,0.048,0.504,0.288c1.056,2.352,1.944,5.052,2.664,8.1c0.72,3.048,1.32,6.036,1.8,8.964
	c0.192,1.152,0.408,2.484,0.648,3.996c0.24,1.512,0.636,2.928,1.188,4.248s1.296,2.436,2.232,3.348
	c0.4874,0.4749,1.0673,0.8197,1.7305,1.0473c-0.4683-1.5928-0.9032-3.0854-1.3026-4.4713c-0.408-1.416-0.636-2.748-0.684-3.996
	c-0.048-1.584,0.168-3.12,0.648-4.608c0.48-1.488,1.164-2.808,2.052-3.96c0.888-1.152,2.004-2.064,3.348-2.736
	s2.856-0.984,4.536-0.936c0.72,0.048,1.812,0.276,3.276,0.684s3.156,0.912,5.076,1.512c1.92,0.6,4.008,1.26,6.264,1.98
	c2.256,0.72,4.524,1.392,6.804,2.016c2.28,0.624,4.5,1.164,6.66,1.62c2.16,0.456,4.104,0.732,5.832,0.828
	c0.288,0,0.396,0.348,0.324,1.044c-0.072,0.696-0.2401,1.464-0.504,2.304c-0.264,0.84-0.552,1.5959-0.864,2.2679
	c-0.312,0.6721-0.588,0.984-0.828,0.936c-1.248-0.192-2.76-0.048-4.536,0.432c-1.7759,0.48-3.7079,1.14-5.796,1.98
	c-2.088,0.84-4.284,1.8-6.588,2.88s-4.584,2.112-6.84,3.096c-1.6987,0.741-3.3522,1.3914-4.9829,1.9962
	c0.192,1.1315,0.5146,2.1711,0.9949,3.0998c0.72,1.392,1.812,2.46,3.276,3.204s3.348,0.924,5.652,0.54
	c1.344-0.192,2.844-0.636,4.5-1.332s3.372-1.548,5.148-2.556c1.776-1.008,3.564-2.124,5.364-3.348s3.504-2.484,5.112-3.78
	c1.608-1.296,3.084-2.58,4.428-3.852c1.344-1.272,2.448-2.436,3.312-3.492c0.048-0.816-0.276-1.776-0.972-2.88
	s-1.512-2.364-2.448-3.78c-0.936-1.416-1.908-3.024-2.916-4.824c-1.008-1.8-1.8-3.804-2.376-6.012
	c-0.048-0.24-0.276-0.468-0.684-0.684s-0.684-0.468-0.828-0.756c0.096-0.768,0.216-1.488,0.36-2.16
	c0.096-0.576,0.192-1.152,0.288-1.728s0.192-1.008,0.288-1.296c0.144-0.576,0.504-0.672,1.08-0.288
	c1.632,1.392,3.024,2.7,4.176,3.924c1.152,1.224,2.064,2.196,2.736,2.916c0.192,0.24,0.228,0.48,0.108,0.72
	c-0.12,0.24-0.372,0.36-0.756,0.36c-0.144,0-0.336-0.048-0.576-0.144c-0.24-0.096-0.492-0.1801-0.756-0.252
	c-0.264-0.072-0.48-0.132-0.648-0.18c-0.168-0.048-0.252,0-0.252,0.144c0.048,0.432,0.348,1.068,0.9,1.908
	c0.552,0.84,1.176,1.776,1.872,2.808s1.368,2.1,2.016,3.204s1.116,2.088,1.404,2.952c0.336,1.008,0.528,2.088,0.576,3.24
	c0.048,1.152-0.0359,2.28-0.252,3.384c-0.216,1.104-0.552,2.172-1.008,3.204c-0.4561,1.032-1.02,1.98-1.692,2.844
	C183.6505,183.2876,181.8505,185.0995,179.5465,187.0915z M137.6705,181.9955c-0.0117,0-0.0185,0.0014-0.0298,0.0015
	c0.0093,0.0001,0.0173,0.002,0.0267,0.002L137.6705,181.9955z M146.1386,179.7836c0.816-3.216,1.968-6.24,3.456-9.072
	c0.384-0.672,0.72-0.864,1.008-0.576c0.288,0.288,0.24,0.84-0.144,1.656c-0.384,0.96-0.804,2.088-1.2599,3.384
	c-0.456,1.296-0.876,2.664-1.26,4.1039c-0.0782,0.2973-0.1374,0.5955-0.201,0.8934c1.6351-0.5039,3.2354-1.0469,4.765-1.6694
	c2.064-0.84,4.032-1.704,5.9041-2.592c1.8719-0.888,3.624-1.716,5.256-2.484c-1.248-0.192-2.736-0.588-4.464-1.188
	c-1.728-0.6-3.552-1.212-5.472-1.836c-1.92-0.624-3.84-1.188-5.7599-1.692c-1.92-0.504-3.696-0.768-5.328-0.792
	c-1.632-0.024-3.06,0.288-4.284,0.936c-1.224,0.6479-2.076,1.788-2.556,3.42c1.68,3.12,2.784,6.336,3.312,9.648
	c2.3204-0.1895,4.5937-0.5912,6.8206-1.201C146.0022,180.4114,146.0581,180.0853,146.1386,179.7836z M149.7946,56.9095
	c-0.096,0.096-0.204,0.276-0.324,0.54c-0.12,0.264-0.228,0.516-0.324,0.756s-0.168,0.456-0.216,0.648
	c-0.048,0.192-0.024,0.264,0.072,0.216c1.2-0.72,2.22-1.32,3.06-1.8c0.84-0.48,1.596-0.9,2.268-1.26s1.308-0.696,1.908-1.008
	s1.26-0.684,1.98-1.116c0.048-0.048,0.132-0.168,0.252-0.36s0.228-0.42,0.324-0.684c0.0959-0.264,0.192-0.504,0.288-0.72
	s0.144-0.372,0.144-0.468c0-0.144-0.12-0.168-0.36-0.072c-0.336,0.096-0.888,0.384-1.656,0.864c-0.768,0.48-1.44,0.816-2.016,1.008
	c-0.288,0.096-0.648,0.096-1.08,0c-0.4319-0.096-0.864-0.228-1.296-0.396c-0.432-0.168-0.804-0.36-1.116-0.576
	s-0.468-0.444-0.468-0.684c0-0.0959,0.108-0.216,0.324-0.36s0.468-0.276,0.756-0.396c0.288-0.12,0.576-0.228,0.864-0.324
	s0.48-0.144,0.576-0.144c0.432,0,0.696,0.228,0.792,0.684s0.24,0.684,0.432,0.684c0.288,0,0.564-0.288,0.828-0.864
	c0.264-0.576,0.396-1.008,0.396-1.296c0-0.384-0.108-0.768-0.324-1.152c-0.216-0.384-0.564-0.576-1.044-0.576
	c-0.432,0-0.948,0.192-1.548,0.576c-0.6,0.384-1.176,0.84-1.728,1.368s-1.008,1.104-1.368,1.728c-0.36,0.624-0.54,1.152-0.54,1.584
	c0,0.624,0.204,1.092,0.612,1.404c0.408,0.312,0.852,0.588,1.332,0.828c-0.192,0.096-0.516,0.312-0.972,0.648
	C150.1665,56.5256,149.8905,56.7655,149.7946,56.9095z M205.7426,142.5536c-0.816-7.224-1.7401-14.436-2.772-21.636
	c-1.032-7.2-2.1-14.388-3.204-21.564s-2.064-14.364-2.88-21.564c-0.048-0.24,0.012-0.288,0.18-0.144
	c0.168,0.144,0.372,0.36,0.612,0.648s0.492,0.6,0.756,0.936c0.264,0.336,0.516,0.6,0.756,0.7921c0.336,0.3359,0.636,0.384,0.9,0.144
	c0.264-0.24,0.324-0.648,0.18-1.224c-0.096-0.432-0.396-1.248-0.9-2.448c-0.504-1.2-1.068-2.532-1.692-3.996
	c-0.624-1.464-1.272-2.916-1.944-4.356s-1.248-2.64-1.728-3.6c-0.192-0.336-0.384-0.48-0.576-0.432
	c-0.192,0.048-0.336,0.192-0.432,0.432c-0.048,0.144-0.168,0.504-0.36,1.08c-0.192,0.576-0.396,1.2-0.612,1.872
	s-0.396,1.284-0.54,1.836c-0.144,0.552-0.192,0.876-0.144,0.972c0.048,0.24,0.216,0.576,0.504,1.008
	c0.288,0.432,0.4561,0.84,0.504,1.224c0.096,0.576,0.204,1.248,0.324,2.016s0.2401,1.548,0.36,2.34s0.228,1.548,0.324,2.268
	c0.096,0.72,0.168,1.32,0.216,1.8c0.816,7.2,1.776,14.388,2.88,21.564c1.104,7.176,2.172,14.364,3.204,21.564
	c1.032,7.2,1.956,14.412,2.772,21.636c0.816,7.224,1.368,14.46,1.656,21.708c0.0959,1.296,0.192,2.484,0.288,3.564
	c0.096,1.08,0,2.316-0.288,3.708c-0.288,1.392-0.984,2.784-2.088,4.176c-1.104,1.392-2.46,2.748-4.068,4.068
	c-1.608,1.32-3.372,2.604-5.292,3.852c-1.92,1.248-3.84,2.388-5.76,3.42c-1.92,1.032-3.744,1.956-5.472,2.772
	c-1.728,0.816-3.192,1.464-4.392,1.944c-0.192,0.096-0.384,0.216-0.576,0.36s-0.336,0.3-0.432,0.468
	c-0.096,0.168-0.096,0.312,0,0.4319c0.096,0.1201,0.36,0.1801,0.792,0.1801c0.816-0.048,1.932-0.192,3.348-0.432
	c1.416-0.24,2.892-0.516,4.428-0.828s2.976-0.648,4.32-1.008c1.344-0.36,2.352-0.684,3.024-0.972
	c2.64-1.152,4.944-2.784,6.912-4.896c1.968-2.112,3.612-4.5,4.932-7.164s2.28-5.448,2.88-8.352s0.852-5.724,0.756-8.46
	C207.1105,157.0135,206.5585,149.7776,205.7426,142.5536z M220.5686,147.9195c-0.288-7.248-0.8521-14.484-1.692-21.708
	c-0.84-7.224-1.776-14.424-2.808-21.6c-1.032-7.176-2.088-14.364-3.168-21.564c-1.08-7.2-2.028-14.4-2.844-21.6
	c0-0.24,0.072-0.288,0.216-0.144c0.144,0.144,0.336,0.36,0.576,0.648c0.24,0.288,0.504,0.612,0.792,0.972
	c0.288,0.36,0.552,0.636,0.792,0.828c0.336,0.288,0.624,0.324,0.864,0.108s0.288-0.636,0.144-1.26
	c-0.0959-0.4319-0.384-1.248-0.864-2.448c-0.48-1.2-1.044-2.52-1.692-3.96s-1.308-2.892-1.98-4.356s-1.248-2.676-1.728-3.636
	c-0.144-0.336-0.324-0.48-0.54-0.432s-0.372,0.192-0.468,0.432c-0.048,0.144-0.168,0.504-0.36,1.08
	c-0.192,0.576-0.396,1.2-0.612,1.8719s-0.396,1.284-0.54,1.836c-0.144,0.552-0.192,0.876-0.144,0.972
	c0.048,0.24,0.216,0.576,0.504,1.008c0.288,0.432,0.48,0.84,0.576,1.224c0.096,0.576,0.204,1.248,0.324,2.016s0.24,1.548,0.36,2.34
	c0.12,0.7921,0.228,1.56,0.324,2.304s0.168,1.356,0.216,1.836c0.816,7.2,1.764,14.388,2.844,21.564
	c1.08,7.176,2.136,14.364,3.168,21.564c1.032,7.2,1.9561,14.4,2.772,21.6c0.816,7.2,1.392,14.424,1.728,21.672
	c0.096,2.064,0.156,4.116,0.1801,6.156c0.024,2.04-0.012,4.092-0.108,6.156c-0.048,0.384,0.048,0.612,0.288,0.684
	c0.24,0.072,0.408-0.012,0.504-0.252c0.48-1.008,0.888-2.184,1.224-3.528s0.6-2.748,0.792-4.212c0.192-1.464,0.312-2.916,0.36-4.356
	C220.6165,150.2956,220.6165,149.0235,220.5686,147.9195z M133.8186,215.1515c-6.6,2.592-13.188,5.376-19.764,8.352
	c-0.192,0.096-0.384,0.324-0.576,0.684c-0.192,0.36-0.528,0.972-1.008,1.836c-0.096,0.096-0.072,0.144,0.072,0.144l0.072,0.072
	c13.152-5.952,26.448-11.184,39.888-15.696c0.24-0.096,0.396-0.216,0.468-0.36c0.072-0.144,0.252-0.48,0.54-1.0081
	c0.528-1.008,0.672-1.464,0.4319-1.368C147.1265,210.1116,140.4185,212.5596,133.8186,215.1515z M95.2346,148.6056l0.288,0.144
	c14.352-6.528,28.764-12.624,43.236-18.288c12.2681-4.8015,24.7103-9.3831,37.3061-13.7706c0.91,1.7134,1.8029,3.3868,2.6779,5.0187
	c2.16,4.032,4.4399,8.316,6.84,12.852s4.656,9.18,6.768,13.932c2.112,4.752,3.912,9.552,5.4,14.4c1.488,4.848,2.4,9.6,2.736,14.256
	c0,0.384,0.204,0.504,0.612,0.36c0.408-0.144,0.684-0.648,0.828-1.512c0.48-3.264,0.54-6.588,0.18-9.972
	c-0.36-3.384-1.032-6.768-2.016-10.152c-0.984-3.384-2.196-6.756-3.636-10.116s-2.976-6.648-4.608-9.864
	c-1.632-3.216-3.288-6.348-4.968-9.396c-1.68-3.048-3.264-5.964-4.752-8.748c-0.4493-0.8538-0.9257-1.752-1.4147-2.6711
	c0.7173-0.2462,1.4284-0.5001,2.1467-0.7449c0.288-0.096,0.516-0.204,0.684-0.324c0.168-0.12,0.348-0.312,0.54-0.576
	c0.192-0.264,0.408-0.612,0.648-1.044s0.552-1.008,0.936-1.728c0.672-1.2,1.128-2.136,1.368-2.808c0.24-0.672,0.12-0.912-0.36-0.72
	c-2.8814,0.9852-5.7493,1.9907-8.6163,2.9976c-0.2856-0.5287-0.5676-1.0516-0.8637-1.5975c-1.848-3.408-3.636-6.9-5.364-10.476
	c-1.728-3.576-3.288-7.128-4.68-10.656c-1.392-3.528-2.4-6.804-3.024-9.828c0-0.144,0.12-0.192,0.36-0.144
	c0.576,0.24,1.104,0.444,1.584,0.612c0.48,0.168,0.936,0.3,1.368,0.396c0.384,0.096,0.66,0.036,0.828-0.18
	c0.168-0.216,0.18-0.444,0.036-0.684c-0.144-0.288-0.66-0.792-1.548-1.512c-0.888-0.72-1.896-1.5-3.024-2.34
	c-1.128-0.84-2.268-1.668-3.42-2.484c-1.152-0.816-2.064-1.464-2.736-1.944c-0.24-0.144-0.384-0.048-0.432,0.288
	c-0.096,0.24-0.168,0.624-0.216,1.152c-0.048,0.528-0.096,1.08-0.144,1.656c-0.048,0.576-0.072,1.128-0.072,1.656
	s0.048,0.936,0.144,1.224c0,0.096,0.12,0.24,0.36,0.432c0.24,0.192,0.504,0.396,0.792,0.612s0.564,0.42,0.828,0.612
	c0.264,0.192,0.444,0.36,0.54,0.504c0.864,3.696,2.028,7.452,3.492,11.268s3.072,7.62,4.824,11.412
	c1.752,3.792,3.588,7.512,5.508,11.16c0.0866,0.1646,0.171,0.3241,0.2573,0.4879c-10.3747,3.6953-20.6602,7.5245-30.8453,11.5041
	c-14.496,5.664-28.92,11.7599-43.272,18.288c-0.4319,0.24-0.936,0.828-1.512,1.764c-0.576,0.936-1.464,2.556-2.664,4.86
	C95.0186,148.3656,95.0426,148.5096,95.2346,148.6056z M131.2946,45.4695c10.6559-4.848,21.6479-9.168,32.976-12.96
	c0.24-0.096,0.396-0.216,0.468-0.36c0.072-0.144,0.252-0.504,0.54-1.08c0.576-0.96,0.72-1.392,0.432-1.296
	c-5.616,1.92-11.172,3.948-16.668,6.084c-5.496,2.136-10.932,4.428-16.308,6.876c-0.192,0.096-0.384,0.324-0.576,0.684
	c-0.192,0.36-0.528,0.972-1.008,1.836c-0.096,0.0959-0.072,0.144,0.072,0.144L131.2946,45.4695z M165.7526,135.2876
	c-0.144,0.552-0.264,1.0439-0.36,1.476c0.672,0.24,1.392,0.612,2.16,1.116c0.768,0.504,1.152,1.284,1.152,2.34
	c0,1.488-0.288,2.7-0.864,3.636c-0.576,0.936-1.212,1.56-1.908,1.8719c-0.696,0.312-1.356,0.312-1.98,0
	c-0.624-0.312-1.008-0.972-1.152-1.98c-0.096-0.48-0.048-1.188,0.144-2.124c0.192-0.936,0.444-1.908,0.756-2.916
	c0.312-1.008,0.636-1.968,0.972-2.88s0.624-1.608,0.864-2.088c0.0959-0.24,0.24-0.384,0.432-0.432
	c0.192-0.048,0.24,0.144,0.144,0.576C166.0166,134.2676,165.8966,134.7356,165.7526,135.2876z M164.5286,139.7156
	c-0.096,0.24-0.204,0.564-0.324,0.972s-0.168,0.804-0.144,1.188c0.024,0.384,0.12,0.72,0.288,1.008
	c0.168,0.288,0.492,0.432,0.972,0.432c0.432,0,0.84-0.144,1.224-0.432c0.384-0.288,0.672-0.6,0.864-0.936
	c-0.192-0.576-0.552-1.116-1.08-1.62C165.8006,139.8235,165.2006,139.6196,164.5286,139.7156z M182.5806,48.1476
	c-0.096-0.48-0.048-1.188,0.144-2.124c0.192-0.936,0.444-1.908,0.756-2.916c0.312-1.0081,0.636-1.968,0.972-2.88
	c0.336-0.912,0.624-1.608,0.864-2.088c0.096-0.24,0.24-0.384,0.432-0.432s0.24,0.144,0.144,0.576
	c-0.096,0.384-0.216,0.852-0.36,1.404s-0.264,1.044-0.36,1.476c0.672,0.24,1.392,0.612,2.16,1.116
	c0.768,0.504,1.152,1.284,1.152,2.34c0,1.488-0.288,2.7-0.864,3.636c-0.576,0.936-1.212,1.56-1.908,1.872s-1.356,0.312-1.98,0
	C183.1085,49.8155,182.7246,49.1556,182.5806,48.1476z M183.8405,46.2756c0.024,0.384,0.12,0.72,0.288,1.008
	c0.168,0.288,0.492,0.432,0.972,0.432c0.432,0,0.84-0.144,1.224-0.432c0.384-0.288,0.672-0.6,0.864-0.936
	c-0.192-0.576-0.552-1.116-1.08-1.62c-0.528-0.504-1.128-0.708-1.8-0.612c-0.096,0.24-0.204,0.564-0.324,0.972
	S183.8165,45.8916,183.8405,46.2756z"/>
</svg>
