<svg version="1.1" xmlns="http://www.w3.org/2000/svg" width="256" height="256" viewBox="0 0 256 256">
<path fill="#FF7335" d="M137.6674,181.999l0.0031-0.0035c-0.0117,0-0.0185,0.0014-0.0298,0.0015
	C137.65,181.9971,137.658,181.999,137.6674,181.999z M150.6026,170.1356c0.288,0.288,0.24,0.84-0.144,1.656
	c-0.384,0.96-0.804,2.088-1.2599,3.384c-0.456,1.296-0.876,2.664-1.2599,4.1039c-0.0782,0.2973-0.1375,0.5955-0.201,0.8934
	c1.6351-0.5039,3.2354-1.0469,4.765-1.6694c2.064-0.84,4.032-1.704,5.9041-2.592c1.8719-0.888,3.624-1.716,5.256-2.484
	c-1.248-0.192-2.736-0.588-4.464-1.188s-3.552-1.212-5.472-1.836s-3.84-1.188-5.7599-1.692c-1.92-0.504-3.696-0.768-5.328-0.792
	s-3.06,0.288-4.284,0.936c-1.224,0.6479-2.076,1.788-2.556,3.42c1.68,3.12,2.784,6.336,3.312,9.6479
	c2.3204-0.1895,4.5937-0.5912,6.8206-1.201c0.0707-0.3111,0.1266-0.6372,0.2072-0.9389c0.816-3.216,1.968-6.24,3.456-9.072
	C149.9786,170.0396,150.3146,169.8476,150.6026,170.1356z M185.1005,47.7156c0.432,0,0.84-0.144,1.224-0.432s0.672-0.6,0.864-0.936
	c-0.192-0.576-0.552-1.116-1.08-1.62c-0.528-0.504-1.1281-0.708-1.8-0.612c-0.0959,0.24-0.204,0.564-0.324,0.972
	c-0.12,0.408-0.168,0.804-0.144,1.188s0.12,0.72,0.288,1.008C184.2965,47.5716,184.6205,47.7156,185.1005,47.7156z
	 M164.5286,139.7156c-0.096,0.2401-0.204,0.564-0.324,0.972c-0.12,0.408-0.168,0.804-0.144,1.188s0.12,0.72,0.288,1.008
	s0.492,0.432,0.972,0.432c0.432,0,0.84-0.144,1.224-0.432c0.384-0.288,0.672-0.6,0.864-0.936c-0.192-0.576-0.552-1.116-1.08-1.62
	C165.8006,139.8235,165.2006,139.6196,164.5286,139.7156z M128,0C57.3076,0,0,57.3076,0,128s57.3076,128,128,128
	s128-57.3076,128-128S198.6924,0,128,0z M182.7246,46.0236c0.192-0.936,0.444-1.908,0.756-2.916
	c0.312-1.0081,0.636-1.968,0.972-2.88s0.624-1.608,0.864-2.088c0.096-0.24,0.24-0.384,0.432-0.432s0.24,0.144,0.144,0.576
	c-0.0959,0.384-0.216,0.8521-0.36,1.4041c-0.144,0.5519-0.264,1.0439-0.36,1.476c0.672,0.2401,1.392,0.612,2.16,1.116
	s1.152,1.284,1.152,2.34c0,1.488-0.288,2.7-0.864,3.636s-1.212,1.56-1.908,1.872s-1.356,0.312-1.98,0
	c-0.6241-0.3121-1.008-0.972-1.152-1.98C182.4846,47.6676,182.5326,46.9596,182.7246,46.0236z M131.1506,45.2535
	c0.48-0.864,0.816-1.476,1.008-1.836c0.192-0.36,0.384-0.588,0.576-0.684c5.376-2.448,10.812-4.74,16.308-6.876
	s11.052-4.164,16.668-6.084c0.288-0.096,0.144,0.336-0.432,1.296c-0.288,0.576-0.468,0.936-0.54,1.08
	c-0.072,0.144-0.228,0.264-0.468,0.36c-11.3281,3.792-22.3201,8.112-32.976,12.96l-0.072-0.072
	C131.0786,45.3975,131.0546,45.3494,131.1506,45.2535z M150.2626,54.7135c-0.408-0.312-0.612-0.78-0.612-1.404
	c0-0.432,0.18-0.96,0.54-1.584s0.816-1.2,1.368-1.728s1.128-0.984,1.728-1.368c0.6-0.384,1.116-0.576,1.548-0.576
	c0.48,0,0.828,0.192,1.044,0.576s0.324,0.768,0.324,1.152c0,0.288-0.132,0.72-0.396,1.296c-0.264,0.576-0.54,0.864-0.828,0.864
	c-0.192,0-0.336-0.228-0.432-0.684s-0.36-0.684-0.792-0.684c-0.096,0-0.288,0.048-0.576,0.144c-0.288,0.096-0.576,0.204-0.864,0.324
	c-0.288,0.12-0.54,0.252-0.756,0.396s-0.324,0.2641-0.324,0.36c0,0.24,0.156,0.468,0.468,0.684s0.684,0.408,1.116,0.576
	c0.432,0.168,0.8641,0.3,1.296,0.396c0.432,0.096,0.7921,0.096,1.08,0c0.576-0.192,1.248-0.528,2.016-1.008s1.32-0.768,1.656-0.864
	c0.2401-0.096,0.36-0.072,0.36,0.072c0,0.096-0.048,0.252-0.144,0.468c-0.0959,0.216-0.1921,0.456-0.288,0.72
	c-0.096,0.264-0.204,0.492-0.324,0.684s-0.204,0.312-0.252,0.36c-0.72,0.432-1.38,0.804-1.98,1.116
	c-0.6,0.312-1.236,0.6479-1.908,1.008c-0.6721,0.36-1.428,0.78-2.268,1.2599c-0.84,0.48-1.86,1.08-3.06,1.8
	c-0.096,0.048-0.1201-0.024-0.072-0.216c0.048-0.192,0.12-0.408,0.216-0.648s0.204-0.492,0.324-0.756
	c0.1201-0.264,0.228-0.444,0.324-0.54c0.0959-0.144,0.3719-0.3839,0.828-0.72c0.456-0.336,0.78-0.552,0.972-0.648
	C151.1146,55.3015,150.6706,55.0255,150.2626,54.7135z M95.1625,148.1738c1.2-2.304,2.088-3.924,2.664-4.86
	c0.576-0.936,1.0801-1.524,1.512-1.764c14.352-6.5281,28.776-12.624,43.272-18.288c10.1851-3.9796,20.4706-7.8088,30.8453-11.5041
	c-0.0863-0.1638-0.1707-0.3233-0.2573-0.4879c-1.92-3.648-3.756-7.368-5.508-11.16c-1.752-3.792-3.36-7.596-4.824-11.412
	s-2.628-7.572-3.492-11.268c-0.096-0.144-0.276-0.312-0.54-0.504c-0.264-0.192-0.54-0.396-0.828-0.612s-0.552-0.42-0.792-0.612
	c-0.2401-0.192-0.36-0.336-0.36-0.432c-0.0959-0.288-0.144-0.696-0.144-1.224s0.024-1.08,0.072-1.656s0.096-1.128,0.144-1.656
	s0.12-0.912,0.216-1.152c0.048-0.336,0.192-0.432,0.432-0.288c0.672,0.48,1.584,1.128,2.736,1.944s2.292,1.644,3.42,2.484
	c1.128,0.84,2.136,1.62,3.024,2.34c0.888,0.72,1.404,1.224,1.548,1.512c0.144,0.24,0.132,0.468-0.036,0.684
	c-0.168,0.216-0.444,0.276-0.828,0.18c-0.432-0.0959-0.888-0.228-1.368-0.396c-0.48-0.168-1.008-0.372-1.584-0.612
	c-0.24-0.048-0.36,0-0.36,0.144c0.624,3.024,1.632,6.3,3.024,9.828s2.952,7.08,4.68,10.6559c1.728,3.576,3.516,7.0681,5.364,10.476
	c0.2961,0.5459,0.5781,1.0688,0.8637,1.5975c2.867-1.0069,5.7349-2.0124,8.6163-2.9976c0.48-0.192,0.6,0.048,0.36,0.72
	s-0.696,1.608-1.368,2.808c-0.384,0.72-0.696,1.296-0.936,1.728s-0.456,0.78-0.648,1.044s-0.372,0.456-0.54,0.576
	c-0.168,0.12-0.396,0.228-0.684,0.324c-0.7183,0.2448-1.4294,0.4987-2.1467,0.7449c0.489,0.9191,0.9654,1.8173,1.4147,2.6711
	c1.488,2.7841,3.072,5.7,4.752,8.748c1.68,3.048,3.336,6.18,4.968,9.396s3.168,6.504,4.608,9.864s2.652,6.732,3.636,10.116
	c0.984,3.384,1.656,6.768,2.0161,10.152c0.36,3.384,0.3,6.708-0.18,9.972c-0.144,0.864-0.42,1.368-0.828,1.512
	s-0.612,0.024-0.612-0.36c-0.3361-4.656-1.248-9.408-2.736-14.256c-1.488-4.848-3.288-9.6479-5.4-14.4s-4.3679-9.396-6.768-13.932
	c-2.4001-4.536-4.68-8.82-6.84-12.852c-0.875-1.6319-1.7679-3.3053-2.6779-5.0187c-12.5958,4.3875-25.038,8.9691-37.3061,13.7706
	c-14.472,5.664-28.884,11.76-43.236,18.288l-0.288-0.144C95.0426,148.5096,95.0186,148.3656,95.1625,148.1738z M167.5526,137.8796
	c0.768,0.504,1.152,1.284,1.152,2.34c0,1.488-0.288,2.7-0.864,3.636s-1.212,1.56-1.908,1.8719c-0.696,0.312-1.356,0.312-1.98,0
	s-1.008-0.972-1.152-1.98c-0.096-0.48-0.048-1.188,0.144-2.124c0.192-0.936,0.444-1.908,0.756-2.916s0.636-1.968,0.972-2.88
	s0.624-1.608,0.864-2.088c0.0959-0.24,0.24-0.384,0.432-0.432s0.24,0.144,0.144,0.576c-0.096,0.3841-0.216,0.8521-0.36,1.4041
	s-0.264,1.0439-0.36,1.476C166.0646,137.0036,166.7846,137.3756,167.5526,137.8796z M143.8264,145.7836
	c-0.024,0.096-0.0359,0.168-0.0359,0.216c-0.096,0.24-0.2639,0.564-0.504,0.972c-0.24,0.408-0.492,0.816-0.756,1.224
	c-0.264,0.408-0.516,0.816-0.756,1.224c-0.2401,0.408-0.432,0.7319-0.576,0.972c-0.144,0.192-0.24,0.276-0.288,0.252
	c-0.0479-0.024-0.144-0.084-0.288-0.18c-0.816-0.672-1.68-1.308-2.592-1.908s-1.824-1.14-2.736-1.62
	c-0.144-0.144-0.192-0.288-0.144-0.432c0.48-0.72,0.9481-1.5,1.4041-2.34s0.876-1.62,1.2599-2.34c0.096-0.096,0.216-0.096,0.36,0
	c0.3841,0.192,0.8521,0.456,1.4041,0.792s1.092,0.696,1.62,1.08s1.02,0.744,1.476,1.08c0.4561,0.336,0.804,0.6,1.0439,0.792
	C143.8144,145.6156,143.8504,145.6876,143.8264,145.7836z M110.3806,203.8816c-0.2401,0.48-0.66,1.188-1.26,2.124
	c-0.6,0.936-1.044,1.668-1.332,2.196c-0.144,0.192-0.24,0.276-0.288,0.252c-0.048-0.024-0.144-0.084-0.288-0.18
	c-0.768-0.624-1.572-1.224-2.412-1.8s-1.692-1.104-2.556-1.584c-0.336,0.576-0.696,1.176-1.08,1.8
	c-0.384,0.624-0.696,1.128-0.936,1.512c-0.144,0.192-0.24,0.276-0.288,0.252c-0.048-0.024-0.144-0.084-0.288-0.18
	c-0.816-0.672-1.68-1.308-2.592-1.908s-1.824-1.14-2.736-1.62c-0.144-0.144-0.192-0.288-0.144-0.432c0.48-0.72,0.948-1.5,1.404-2.34
	s0.876-1.62,1.26-2.34c0.096-0.096,0.216-0.096,0.36,0c0.336,0.192,0.756,0.432,1.26,0.72c0.504,0.288,0.996,0.6,1.476,0.936
	c0.48,0.336,0.948,0.672,1.404,1.008s0.828,0.624,1.116,0.864c0.384-0.624,0.732-1.224,1.044-1.8s0.612-1.128,0.9-1.656
	c0.048-0.144,0.168-0.168,0.36-0.072c0.384,0.2401,0.852,0.528,1.404,0.864s1.092,0.684,1.62,1.044s1.02,0.708,1.476,1.044
	s0.804,0.6,1.044,0.792c0.096,0.0479,0.132,0.1199,0.1079,0.216C110.3925,203.6896,110.3806,203.7856,110.3806,203.8816z
	 M153.5106,209.1754c-0.288,0.5281-0.468,0.8641-0.54,1.0081c-0.072,0.144-0.228,0.264-0.468,0.36
	c-13.44,4.512-26.736,9.744-39.888,15.696l-0.072-0.072c-0.144,0-0.168-0.048-0.072-0.144c0.48-0.864,0.816-1.476,1.0081-1.836
	c0.192-0.36,0.384-0.588,0.576-0.684c6.576-2.976,13.164-5.76,19.764-8.352c6.5999-2.5919,13.3079-5.0399,20.1239-7.3441
	C154.1826,207.7114,154.0386,208.1674,153.5106,209.1754z M123.6346,204.0956c-0.144-0.144-0.192-0.288-0.144-0.432
	c0.48-0.72,0.948-1.5,1.404-2.34s0.876-1.62,1.26-2.34c0.0959-0.096,0.216-0.096,0.36,0c0.384,0.192,0.852,0.456,1.404,0.792
	c0.552,0.336,1.092,0.696,1.62,1.08s1.02,0.744,1.476,1.08s0.804,0.6,1.044,0.792c0.096,0.048,0.132,0.1201,0.108,0.216
	c-0.024,0.096-0.0359,0.168-0.0359,0.216c-0.096,0.24-0.264,0.564-0.504,0.972s-0.492,0.816-0.756,1.224s-0.516,0.816-0.756,1.224
	c-0.2401,0.408-0.432,0.732-0.576,0.972c-0.144,0.192-0.24,0.276-0.288,0.252c-0.0481-0.0241-0.144-0.0841-0.288-0.18
	c-0.816-0.6721-1.68-1.308-2.592-1.908C125.4586,205.1156,124.5466,204.5756,123.6346,204.0956z M164.1025,197.4955
	c-2.664,1.3441-5.004,2.184-7.02,2.52c-2.112,0.336-3.9,0.276-5.364-0.18s-2.664-1.2-3.6-2.232s-1.632-2.268-2.088-3.708
	c-0.456-1.4399-0.732-2.964-0.828-4.572c-0.0383-0.6407-0.0396-1.2881-0.0358-1.9365c-1.8436,0.6024-3.5559,1.0211-5.1202,1.2325
	c-0.0959,1.2-0.24,2.076-0.432,2.6281s-0.42,0.828-0.684,0.828s-0.504-0.264-0.72-0.7921
	c-0.2157-0.5272-0.3956-1.2941-0.5393-2.2998c-1.5345,0.1913-2.8535-0.0126-3.9567-0.6122c-1.104-0.6-2.028-1.428-2.772-2.484
	s-1.344-2.232-1.8-3.528c-0.456-1.296-0.78-2.568-0.972-3.816c-0.096,1.248-0.36,2.484-0.792,3.708s-1.008,2.34-1.728,3.348
	c-0.72,1.008-1.584,1.872-2.592,2.592s-2.184,1.176-3.528,1.368l-0.002-0.0015v0.0015c-2.7841,0.2401-4.788-0.48-6.012-2.16
	c-1.224-1.6801-1.788-3.864-1.692-6.552c-0.864,0.528-1.728,1.248-2.592,2.16c-0.864,0.912-1.8,1.824-2.808,2.736
	c-1.0081,0.912-2.136,1.74-3.384,2.484c-1.248,0.744-2.688,1.188-4.32,1.332l-0.0072-0.0054
	c-2.0127,0.2381-3.6664-0.1579-4.9608-1.1886c-1.296-1.032-2.316-2.364-3.06-3.996c-0.744-1.632-1.2599-3.42-1.548-5.364
	c-0.288-1.944-0.456-3.7079-0.504-5.292c-0.336,1.44-0.816,2.988-1.4399,4.644c-0.624,1.6559-1.416,3.06-2.376,4.212
	c-1.536,1.968-3.72,3.96-6.552,5.976c-2.832,2.016-5.904,3.852-9.216,5.508s-6.636,3.012-9.972,4.068s-6.276,1.608-8.82,1.656
	c-2.592,0.048-4.86-0.504-6.804-1.656c-1.944-1.152-3.54-2.64-4.788-4.464s-2.148-3.888-2.7-6.192s-0.7079-4.608-0.468-6.912
	c0.096-0.864,0.24-1.812,0.432-2.844c0.192-1.032,0.432-2.076,0.72-3.132c0.288-1.056,0.588-2.076,0.9-3.06s0.66-1.86,1.044-2.628
	c0.336-0.672,0.6479-0.936,0.936-0.7921c0.288,0.144,0.384,0.408,0.288,0.7921c-0.144,0.432-0.3,1.008-0.468,1.728
	s-0.348,1.488-0.54,2.304s-0.372,1.668-0.54,2.556s-0.276,1.716-0.324,2.4839c-0.192,2.0161-0.024,3.936,0.504,5.7599
	c0.528,1.824,1.368,3.432,2.52,4.824s2.568,2.508,4.248,3.348c1.68,0.84,3.576,1.2599,5.688,1.2599c2.544,0,5.484-0.54,8.82-1.62
	s6.66-2.448,9.972-4.104s6.384-3.504,9.216-5.544c2.832-2.04,5.016-4.02,6.552-5.94c0.72-0.912,1.128-2.064,1.224-3.456
	c0.0959-1.392,0.0959-2.64,0-3.744c-0.384-4.4641-0.708-8.952-0.972-13.4641c-0.264-4.512-0.54-9.012-0.828-13.5
	s-0.624-8.988-1.008-13.5c-0.384-4.512-0.888-9-1.512-13.464c-0.2401-1.632-0.48-3.252-0.72-4.86
	c-0.2401-1.608-0.48-3.204-0.72-4.788c0-0.096,0.048-0.42,0.144-0.972s0.204-1.212,0.324-1.98s0.24-1.572,0.36-2.412
	c0.1201-0.84,0.228-1.596,0.324-2.268c0.144-0.864,0.36-1.32,0.6479-1.368c0.288-0.048,0.504,0.2401,0.648,0.864
	c0.48,1.92,0.972,4.104,1.476,6.552s0.948,5.112,1.332,7.992c0.624,4.464,1.1281,8.94,1.512,13.428
	c0.384,4.488,0.708,8.988,0.972,13.5s0.528,9.012,0.792,13.5s0.588,8.9641,0.972,13.428c0.144,1.248,0.312,2.856,0.504,4.824
	s0.576,3.864,1.152,5.688c0.576,1.824,1.38,3.396,2.412,4.716c1.032,1.32,2.436,1.956,4.212,1.908v0.006
	c2.016,0,3.888-0.456,5.616-1.368s3.264-1.92,4.608-3.024s2.496-2.112,3.456-3.024s1.68-1.368,2.16-1.368
	c0.288-0.048,0.456,0.06,0.504,0.324s0.024,0.4919-0.072,0.684c-0.48,1.008-0.744,1.98-0.792,2.916s0.108,1.764,0.468,2.484
	c0.36,0.72,0.948,1.296,1.764,1.728c0.816,0.432,1.848,0.648,3.096,0.648v0.0021l0.002-0.0021c0.72,0,1.44-0.12,2.16-0.36
	c0.72-0.2401,1.392-0.576,2.016-1.008c0.624-0.432,1.164-0.948,1.62-1.548s0.78-1.2599,0.972-1.98
	c0.288-0.912,0.324-2.22,0.108-3.924c-0.216-1.704-0.528-3.48-0.936-5.328s-0.864-3.624-1.368-5.328
	c-0.504-1.704-0.924-3.012-1.26-3.924c-0.048-0.144,0-0.528,0.144-1.152s0.312-1.332,0.504-2.124
	c0.192-0.7921,0.384-1.548,0.576-2.268c0.192-0.72,0.312-1.248,0.36-1.584c0.048-0.192,0.192-0.312,0.432-0.36
	s0.408,0.048,0.504,0.288c1.056,2.352,1.944,5.052,2.664,8.1c0.72,3.048,1.32,6.036,1.8,8.964c0.192,1.152,0.408,2.484,0.6479,3.996
	c0.2401,1.512,0.636,2.928,1.188,4.248s1.296,2.436,2.232,3.348c0.4874,0.4749,1.0673,0.8197,1.7305,1.0473
	c-0.4683-1.5928-0.9032-3.0854-1.3026-4.4713c-0.408-1.416-0.636-2.748-0.684-3.996c-0.048-1.584,0.168-3.12,0.6479-4.608
	c0.48-1.488,1.164-2.808,2.052-3.96c0.888-1.152,2.004-2.064,3.348-2.736s2.856-0.984,4.536-0.936
	c0.72,0.048,1.812,0.276,3.276,0.684s3.156,0.912,5.076,1.512c1.92,0.6,4.008,1.2599,6.264,1.98c2.256,0.72,4.524,1.392,6.804,2.016
	c2.28,0.624,4.5,1.164,6.66,1.62s4.104,0.732,5.832,0.828c0.288,0,0.396,0.348,0.324,1.044c-0.072,0.696-0.2401,1.464-0.504,2.304
	c-0.264,0.84-0.552,1.5959-0.864,2.2679c-0.312,0.6721-0.588,0.984-0.828,0.936c-1.248-0.192-2.76-0.048-4.536,0.432
	c-1.7759,0.48-3.7079,1.14-5.796,1.98c-2.088,0.84-4.284,1.8-6.588,2.88s-4.584,2.112-6.84,3.096
	c-1.6987,0.741-3.3522,1.3914-4.9829,1.9962c0.192,1.1315,0.5146,2.1711,0.9949,3.0998c0.72,1.392,1.812,2.46,3.276,3.204
	c1.464,0.744,3.348,0.924,5.652,0.54c1.344-0.192,2.844-0.636,4.5-1.332s3.372-1.548,5.148-2.556s3.564-2.124,5.364-3.348
	c1.8-1.224,3.504-2.484,5.112-3.78s3.084-2.58,4.428-3.8521c1.344-1.272,2.448-2.436,3.312-3.492
	c0.048-0.816-0.276-1.776-0.972-2.88s-1.512-2.364-2.448-3.78s-1.908-3.024-2.916-4.824s-1.8-3.804-2.376-6.012
	c-0.048-0.24-0.276-0.468-0.684-0.684s-0.684-0.468-0.828-0.756c0.096-0.768,0.216-1.488,0.36-2.16
	c0.096-0.576,0.192-1.152,0.288-1.728s0.192-1.008,0.288-1.296c0.144-0.576,0.504-0.672,1.08-0.288
	c1.632,1.392,3.024,2.7,4.176,3.924s2.064,2.196,2.736,2.916c0.192,0.24,0.228,0.48,0.108,0.72s-0.372,0.36-0.756,0.36
	c-0.144,0-0.336-0.048-0.576-0.144s-0.492-0.1801-0.756-0.252c-0.264-0.072-0.48-0.132-0.648-0.18c-0.168-0.048-0.252,0-0.252,0.144
	c0.048,0.432,0.348,1.068,0.9,1.908c0.552,0.84,1.176,1.776,1.872,2.808s1.368,2.1,2.016,3.204c0.648,1.104,1.116,2.088,1.404,2.952
	c0.336,1.008,0.528,2.088,0.576,3.24c0.048,1.152-0.0359,2.28-0.252,3.384c-0.216,1.104-0.552,2.172-1.008,3.204
	c-0.4561,1.032-1.02,1.98-1.692,2.844c-1.2958,1.6324-3.0958,3.4443-5.3998,5.4363s-4.788,3.888-7.452,5.688
	C169.4305,194.5795,166.7665,196.1515,164.1025,197.4955z M206.6426,172.7217c-0.6,2.904-1.56,5.688-2.88,8.352
	s-2.964,5.052-4.932,7.164s-4.272,3.744-6.912,4.896c-0.672,0.288-1.68,0.612-3.024,0.972c-1.3441,0.36-2.7841,0.696-4.32,1.008
	c-1.536,0.312-3.012,0.588-4.428,0.828s-2.532,0.384-3.348,0.432c-0.432,0-0.696-0.06-0.7921-0.1801
	c-0.0959-0.1199-0.0959-0.2639,0-0.4319c0.096-0.168,0.2401-0.324,0.432-0.468c0.192-0.144,0.384-0.264,0.576-0.36
	c1.2-0.48,2.664-1.1281,4.392-1.944c1.728-0.816,3.552-1.74,5.472-2.772s3.84-2.172,5.76-3.42s3.684-2.532,5.292-3.852
	s2.964-2.676,4.068-4.068c1.104-1.392,1.8-2.784,2.088-4.176s0.384-2.628,0.288-3.708c-0.0959-1.08-0.1921-2.268-0.288-3.564
	c-0.288-7.248-0.84-14.484-1.656-21.708c-0.816-7.224-1.74-14.436-2.772-21.636s-2.1-14.388-3.204-21.564
	c-1.104-7.176-2.064-14.364-2.88-21.564c-0.048-0.48-0.12-1.08-0.216-1.8c-0.096-0.72-0.2041-1.476-0.324-2.268
	s-0.24-1.572-0.36-2.34c-0.12-0.7679-0.228-1.44-0.324-2.016c-0.0479-0.384-0.216-0.792-0.504-1.224s-0.456-0.768-0.504-1.008
	c-0.048-0.096,0-0.42,0.144-0.972s0.324-1.164,0.54-1.836s0.42-1.296,0.612-1.872c0.192-0.576,0.312-0.936,0.36-1.08
	c0.096-0.24,0.24-0.384,0.432-0.432s0.384,0.096,0.576,0.432c0.48,0.96,1.056,2.16,1.728,3.6s1.32,2.892,1.944,4.356
	c0.624,1.4641,1.188,2.796,1.692,3.996c0.504,1.2,0.804,2.016,0.9,2.448c0.144,0.576,0.084,0.984-0.18,1.224
	c-0.264,0.24-0.564,0.1919-0.9-0.144c-0.24-0.1921-0.492-0.4561-0.756-0.7921c-0.264-0.336-0.516-0.648-0.756-0.936
	c-0.24-0.288-0.444-0.504-0.612-0.648c-0.168-0.144-0.228-0.096-0.18,0.144c0.816,7.2,1.776,14.388,2.88,21.564
	s2.172,14.364,3.204,21.564c1.0319,7.2,1.9561,14.412,2.772,21.636s1.3679,14.4599,1.656,21.7081
	C207.4946,166.9977,207.2427,169.8177,206.6426,172.7217z M220.2087,156.0914c-0.192,1.464-0.456,2.868-0.792,4.212
	s-0.744,2.52-1.224,3.528c-0.096,0.24-0.264,0.324-0.504,0.252c-0.24-0.072-0.336-0.3-0.288-0.684
	c0.096-2.064,0.132-4.116,0.108-6.156c-0.0241-2.04-0.0841-4.092-0.1801-6.156c-0.336-7.248-0.912-14.472-1.728-21.672
	c-0.8159-7.2-1.74-14.4-2.772-21.6s-2.088-14.3879-3.168-21.564c-1.08-7.176-2.028-14.364-2.844-21.564
	c-0.048-0.48-0.12-1.092-0.216-1.836c-0.096-0.744-0.204-1.5119-0.324-2.304s-0.24-1.572-0.36-2.34
	c-0.1201-0.768-0.228-1.44-0.324-2.016c-0.096-0.384-0.288-0.792-0.576-1.224c-0.288-0.432-0.456-0.768-0.504-1.008
	c-0.048-0.096,0-0.42,0.144-0.972c0.144-0.552,0.324-1.1641,0.54-1.836c0.216-0.6719,0.42-1.2959,0.612-1.8719
	s0.312-0.936,0.36-1.08c0.096-0.24,0.252-0.384,0.468-0.432s0.396,0.096,0.54,0.432c0.48,0.96,1.056,2.172,1.728,3.636
	s1.332,2.916,1.98,4.356s1.212,2.7599,1.692,3.96c0.48,1.2,0.7681,2.0161,0.864,2.448c0.144,0.624,0.096,1.044-0.144,1.26
	s-0.528,0.18-0.864-0.108c-0.24-0.192-0.504-0.468-0.792-0.828c-0.288-0.36-0.552-0.684-0.792-0.972
	c-0.24-0.288-0.432-0.504-0.576-0.6479c-0.144-0.144-0.216-0.096-0.216,0.144c0.816,7.2,1.764,14.4,2.844,21.6
	c1.08,7.2,2.136,14.388,3.168,21.564c1.032,7.176,1.968,14.376,2.808,21.6c0.8399,7.224,1.4041,14.46,1.692,21.708
	c0.0479,1.104,0.0479,2.3761,0.0002,3.8159C220.5208,153.1754,220.4008,154.6274,220.2087,156.0914z"/>
</svg>
