<?xml version="1.0" encoding="utf-8"?>
<!-- Generator: Adobe Illustrator 27.9.0, SVG Export Plug-In . SVG Version: 6.00 Build 0)  -->
<svg version="1.1" id="レイヤー_1" xmlns="http://www.w3.org/2000/svg" xmlns:xlink="http://www.w3.org/1999/xlink" x="0px"
	 y="0px" viewBox="0 0 256 256" enable-background="new 0 0 256 256" xml:space="preserve">
<path d="M90.3945,174.4506H37.8203l-11.0898,27.3672H9.875L56.1133,93.2084h16.1328l46.9609,108.6094h-17.4297L90.3945,174.4506z
	 M63.8945,106.4623h-0.2891c-1.7305,5.4727-5.332,14.9805-7.2031,19.7344l-13.6836,35.5742h42.4922l-14.2617-35.5742
	C69.0781,121.7318,65.6211,111.935,63.8945,106.4623z M246.125,104.7904c0,17.082-13.9141,25.7148-32.7188,28.4961
	c-1.1484-2.2031-4.0312-6.043-6.5234-8.3437c19.4766-1.7305,28.8828-9.5,28.8828-20.6289c0-7.293-4.9922-12.3789-11.8047-14.875
	c-6.3281,11.0352-14.2969,20.1523-22.1641,26.5781c0.5781,2.7852,1.25,5.5664,2.1094,8.2539l-9.0156,2.3984
	c-0.4766-1.5352-0.8672-3.2656-1.25-4.8945c-5.0859,2.8789-9.8828,4.5078-13.7188,4.5078c-7.2891,0-12.5703-4.3164-12.5703-12.6641
	c0-12.1836,10.0781-23.3164,23.9922-29.3594c0.2812-4.8945,0.5703-9.6914,0.9531-14.1055
	c-5.6562-0.0938-11.5078-0.3828-15.25-0.5742l-0.1016-9.8828c4.5156,0.5742,10.3672,1.3438,16.125,1.5352
	c0.3828-3.5508,0.6719-6.5234,0.9531-8.8281c0.1953-1.5352,0.1953-3.6445,0.2891-4.2188l10.8438,1.4375
	c-0.3828,0.8633-0.8594,2.3008-1.1484,3.7422c-0.2891,1.7266-0.7734,4.4141-1.25,7.7695
	c11.6094-0.3828,22.6406-1.5352,29.5547-2.875l0.2812,9.2109c-6.1406,1.2461-20.0469,2.3008-30.9844,2.5898
	c-0.4844,3.4531-0.8672,7.1953-1.1562,11.1289c4.8984-1.2461,10.0781-1.918,15.3516-1.8242c1.0547,0,2.1094,0.0977,3.1719,0.1914
	c0.7656-1.918,1.5312-3.8359,2.2031-5.8516l8.5391,3.5508l-1.7266,4.2227C239.125,85.3139,246.125,94.2397,246.125,104.7904z
	 M192.1094,112.6615c-0.6719-5.375-1.0547-10.8438-1.0547-15.6406v-3.2617c-8.25,4.5078-14.2969,11.2227-14.2969,18.5156
	c0,3.168,1.4375,4.6055,5.0859,4.6055C183.9531,116.8803,187.6953,115.5365,192.1094,112.6615z M214.8438,87.7123h-1.1484
	c-4.5078,0-9.3047,0.8633-13.7188,2.3047c-0.0938,2.3008-0.1953,4.6992-0.1953,7.0039c0,2.3984,0.1953,5.6602,0.5781,9.2109
	C205.3516,101.6264,210.5312,95.4858,214.8438,87.7123z M168.9141,223.9975c-3.1484,0-6.1406-1.875-7.4062-4.9688l-72-176.0039
	c-1.6719-4.0859,0.2891-8.7578,4.3789-10.4336c4.0781-1.6523,8.7617,0.2891,10.4336,4.3789l72,175.9961
	c1.6719,4.0938-0.2891,8.7656-4.375,10.4375C170.9531,223.81,169.9219,223.9975,168.9141,223.9975z"/>
</svg>
